# xmcd
#
# Track frame offsets:
# 150
# 14161
# 27533
# 39362
# 57632
# 72589
# 88609
# 103955
# 117563
# 131864
# 144954
# 158731
# 171120
# 183779
#
# Disc length: 2672 seconds
#
#
# Revision: 1
# Processed by: cddbd v1.5.1PL0 Copyright (c) Steve Scherf et al.
# Submitted via: FreeRIP 2.942 
#
DISCID=cf0a6e0e
DTITLE=Vários - Clima de Rodeio
DYEAR=2005
DGENRE=Sertanejo
TTITLE0=Rei do Rodeio
TTITLE1=Me Bate, Me Xinga
TTITLE2=Hey! Hey! Trem Bão
TTITLE3=Peão de Rodeio
TTITLE4=Não Põe a Mão no Meu Chapéu
TTITLE5=Rosto Molhado
TTITLE6=Cavalo Baio
TTITLE7=Paixão no Barretão
TTITLE8=A Cana Perde a Paia
TTITLE9=Explode Coração
TTITLE10=A Trepadeira da Vizinha
TTITLE11=Onde Tem Sanfona Tem Rastapé
TTITLE12=Tudo Que Ela Quer Eu Dou
TTITLE13=Paixão de Peão
EXTD=
EXTT0=
EXTT1=
EXTT2=
EXTT3=
EXTT4=
EXTT5=
EXTT6=
EXTT7=
EXTT8=
EXTT9=
EXTT10=
EXTT11=
EXTT12=
EXTT13=
PLAYORDER=
